<svg id="Group_4" data-name="Group 4" xmlns="http://www.w3.org/2000/svg" xmlns:xlink="http://www.w3.org/1999/xlink" width="459.744" height="436.277" viewBox="0 0 459.744 436.277">
  <defs>
    <clipPath id="clip-path">
      <rect id="Rectangle_3" data-name="Rectangle 3" width="459.744" height="436.277" fill="none"/>
    </clipPath>
  </defs>
  <g id="Group_3" data-name="Group 3" clip-path="url(#clip-path)">
    <path id="Path_8" data-name="Path 8" d="M15.125,34.172c-.094.15-.187.281-.281.408.147-.034.309-.06.465-.085-.062-.1-.125-.207-.184-.323" transform="translate(27.216 62.653)" fill="#050505"/>
    <path id="Path_9" data-name="Path 9" d="M456.874,168.349c-8.526-39.6-27.833-74.146-48.412-108.221A86.763,86.763,0,0,0,393.92,42.433c-12.3-11.8-26.813-19.967-41.745-27.708-11.43-5.925-24.05-8.39-36.027-12.646-6.738-2.394-15.017-.011-22.421-1.06-19.9-2.819-39.187.717-58.531,4.426C227.07,7,219.337,10.407,210.571,9.35c-1.938-.232-7.741-2.845-8.013,1.609-.2,3.193-1.173,3.086-3.018,3.258-9.719.91-19.46,1.6-29.165,2.624-10.886,1.145-22.619-.9-32.366,4.386-5.126,2.78-16.19-.635-14.932,11.065a5.715,5.715,0,0,0-1.575-.541c-2.627-.082-2.737,3.335-4.417,3.726C105.033,38.291,94,43.051,84.5,51.138c-1.428,1.216-3.7,1.924-2.578,4.352a2.509,2.509,0,0,0,1.592,1.6c-4.9,1.641-8.9,5.083-13.637,6.922-1.7.66-2.972,2.037-2.369,3.8.822,2.4,2.564.861,4.182.643,4.446-.6,8.308-2.967,12.513-4.2-3.777,2.046-7.6,3.885-11.416,5.76-.706.349-1.85.674-1.252,1.765,3.533,6.44-2.5,7.038-5.67,9.336-4.021,2.916-9.651,4.9-11.773,8.818-2.559,4.723-5.452,6.905-10.215,7.092a10.872,10.872,0,0,0-1.357.136c.32.544.64.952.578,1.284-.1.524-.618.972-.958,1.454-.292-.453-.825-.912-.813-1.354.011-.388.349-.776.725-1.3-1.519.363-2.465,1.23-3.36,3.179-2.207,4.8-8.254,6.817-9.685,12.4-1.428-.4-3.706,2.063-4.25-.652-.589-2.938-1.187-2.7-2.927-.887-1.014,1.054-4.335.244-2.434,3.533.782,1.354.371,3.6,3.04,2.785.649-.2,1.306-.36,1.961-.538-.819,4.276-5.344,6.174-6.54,10.209-1.462-1.048.011-2.454-.442-3.624-.6-1.564-1.38-1.057-2.306-.266-2.879,2.457-6.12,4.582-8.588,7.392-1.72,1.958-1.561,3.652,2.06,4.74,1.516.456,3.369-3.87,3.576.136.111,2.156,1.244,5.044-3.176,5.874C7.56,141.785,3.329,143.9,3,146.407,1.391,158.511-.737,170.522.252,182.95c.708,8.9,1.094,17.922,1.043,26.844-.014,2.751-3.42,5.029,2.134,4.9a.655.655,0,0,1,.167.5c-1.683,4.284,2.015,9.11.38,12.365-3.593,7.149,1.037,12.756,1.913,18.927,1.091,7.7,6.276,15.864,4.633,22.588-1.312,5.369,5.715,7.171,2.049,11.311,6.936,1.269,5.242,7.123,6.16,11.592,2.343,11.419,8.693,21.1,13.36,31.536,4.658,10.407,12.586,18.148,19.65,26.555,1.456,1.734,3.647,3.069,5.027,5.386,4.111,6.9,9.061,13.329,12.864,20.387,3.414,6.338,12.119,4.519,15.139,10.835,2.338,4.891,6.12,8.574,11.147,9.835,4,1,6.375,6.7,9.26,5.429,6.531-2.873,8.087.91,10.1,5.2,1.037,2.216,3.165,3.244,5.146,4.174,4.9,2.3,9.906,4.366,14.918,6.415,7.851,3.21,15.839,9.039,23.586,8.753,8.4-.309,14.028,5.378,22.418,5.381,10.92.006,22.413,1.924,33.591,3.508,12.47,1.768,25.413.465,38.138.045,5.9-.2,13,.357,17.395-2.621,8.534-5.777,16.814-11.118,27.2-12.58,1.332-.187,2.536-1.275,3.8-1.944a6.172,6.172,0,0,1-1.422-.992c2.108-.754,4.063-2.5,6.3-2.408a1.517,1.517,0,0,0-1.278.706c-.133.184.2.7.317,1.063l2.7-1.139c2.289.4,3.956-.941,5.707-2.04l2.264-1.488,2.559-1.295q1.092-.85,2.185-1.7l1.777-.773c1.456-.836,3.375-1.247,3.267-3.53-.884.133-1.768.264-2.655.4,6.392-2.046,12.209-4.959,16.182-10.671l-1.624-.377c.524.094,1.046.184,1.57.272.742-.728,1.488-1.448,2.233-2.168l-.1-.113c4.987-3.222,9.7-7.027,15.04-9.467,4.718-2.156,8.379-6.132,13.677-7.341,1.034-.235,3.723,2.978,3.389-.819-.377-4.287,4.318-1.533,5.018-4.035,5.783,3.987,5.055-5.27,9.03-4.488,3.655.72,4.491-4.375,8.03-3.482.575-.017,1.153-.031,1.728-.045l-.927-1.074c.986-1.187,1.476-3.4,3.8-1.774,1.788,1.255,3.151-1.122,2.955-1.247-4.922-3.154.635-4.474,1.4-4.99,5.7-3.862,8.512-10.234,12.532-15.258,12.422-15.516,15.669-35.427,21.611-53.838,4.6-14.264,8.121-28.952,12.977-43.168,8.138-23.829,10.552-47.687,5.18-72.641m-453.5,1.312L2.284,169.5l2.533-22.449,1.176.275Q4.68,158.493,3.369,169.661M25.331,304.839c-.1-.17-.272-.337-.281-.513-.006-.091.272-.2.422-.295.139.3.278.6.417.89-.187-.025-.374-.054-.558-.082m14.6-200.951a4.6,4.6,0,0,1-1.23.119,2.655,2.655,0,0,1,.292-1.02c.133-.159.575-.057.878-.071.043.34.15.938.06.972m6.2,223.848c-.153-.315-.261-.649-.385-.978l.275.017c.147.349.3.694.456,1.037-.119-.02-.315-.009-.346-.077m12.98,16.44a.633.633,0,0,1-.513-.235,1.6,1.6,0,0,1-.164-.6c.139-.028.275-.057.351-.071.394.178.771.38,1.125.572a7.275,7.275,0,0,1-.8.329M65.32,351.3c-1.131-.394-2.581-.19-2.074-2.117.162-.615-.391-1.958,1.014-1.326a12,12,0,0,1,2.556,2.034c-.085,1.454-.363,1.8-1.5,1.408m6.452,6.168c-.306.037-.657-.295-.989-.468.283-.247.567-.493.853-.74.346.173.672.346,1,.519-.286.246-.553.652-.861.689M87.279,56.229c-.459.045-.89.153-1.332.235.343-.187.686-.388,1.023-.575.043-.023.255.255.385.394-.085-.062-.176-.125-.077-.054M254.469,3.967c.391.2.83.417,1.269.638a1.734,1.734,0,0,1-2.162,0c.261-.187.521-.371.893-.635m-11.5,1.887c2.533.091,4.4-2.618,7.809-1.3-3.006.74-5.163,2.176-7.809,1.3M256.81,423.3c-1.2,1.077-2.034,1.816-3.579,1.451-1.04-.247-.473-.283,0-.731,1.182-1.122,1.941-2.839,4.089-1.944.232.1.467.2.7.3a9.065,9.065,0,0,0-1.21.924m7.976-.833c-.309.241-.649.47-.972.708-.292-.269-.6-.519-.893-.751a2.166,2.166,0,0,1,1.864.042m4,6.086a8.022,8.022,0,0,1-5.335.456c.1-.241.2-.484.306-.725.754.578,1.9-.145,3.015-.734a2.686,2.686,0,0,0,2.037,1l-.023.006M265.409,3.369a2.738,2.738,0,0,1-.391-.1c2.488-.442,4.973-.884,8.16-1.448.116.074.34.252.618.448a2.26,2.26,0,0,1-.374.332c-2.522,1.672-5.287,1.054-8.013.771m4.616,424.7c.017-.02.048-.026.062-.045,4.281-6.384,11.6-6.99,18.225-9.934-6.4,3.377-11.9,7.475-18.287,9.979m28.207-13.657c-.009-.059.023-.091,0-.159,6.871-4.222,13.178-9.481,21.724-12.226-6.517,6.44-14.317,9.064-21.727,12.385m23.8-8.157c-.057,0-.1.023-.161.028a1.04,1.04,0,0,0,.026.113l.071-.071.071-.071-.281.555.034.621c-.6.207-1.2.416-1.791.623l-2.287,1.624-2.692,1.122c-1.046.142-2.3-.02-2.292,1.621a3.464,3.464,0,0,1-.621-.031c-.326-.077-.638-.2-.958-.3,3.873-1.369,6.327-5.392,10.716-5.8-.357-1.258.978-.887,1.439-1.354-.422.434-.85.878-1.275,1.32m8.279-6.84.028-.323.368.2Zm54.479-40.844c.048-.133.062-.346.15-.385a.88.88,0,0,1,.708.091c-.286.1-.572.2-.859.295m63.557-194.426c-.9-1.366-.451-3.567-2.2-4.769-.136-.094.238-.929.332-1.264,2.343,1.658,1.859,3.885,1.873,6.032" transform="translate(0 0)" fill="#050505"/>
    <path id="Path_10" data-name="Path 10" d="M70,5.264a6.175,6.175,0,0,0,1.638-.431c-.244-.224-.49-.445-.827-.754-.5.122-1.065.261-1.626.4.269.281.541.788.816.788" transform="translate(126.84 7.48)" fill="#050505"/>
    <path id="Path_11" data-name="Path 11" d="M69.561,4.8c-.295-.207-.589-.411-.893-.623-.34.125-.674.252-1.006.383.323.266.615.669.978.748.255.06.609-.32.921-.507" transform="translate(124.057 7.649)" fill="#050505"/>
    <path id="Path_12" data-name="Path 12" d="M59.9,152.482c.266-.048.462-.5.689-.765-.677-.074-1.352-.15-2.029-.224-.2,1.08.555,1.131,1.34.989" transform="translate(107.3 277.755)" fill="#050505"/>
    <path id="Path_13" data-name="Path 13" d="M58.456,151.42c.028.071.068.119.1.2l.065-.074-.062.068.125.014c.011-.062-.006-.094.011-.164-.076-.011-.156-.026-.235-.04" transform="translate(107.176 277.621)" fill="#050505"/>
    <path id="Path_14" data-name="Path 14" d="M57.934,151.234c-.147.065-.207.32-.309.487.785.13,1.57.258,2.357.388a1.376,1.376,0,0,0-2.049-.876" transform="translate(105.652 276.937)" fill="#050505"/>
    <path id="Path_15" data-name="Path 15" d="M4.229,49.335c-.17-.173-.315-.315-.456-.456a3.88,3.88,0,0,0-.4.861c-.023.1.258.278.4.422.153-.281.306-.558.456-.827" transform="translate(6.182 89.617)" fill="#050505"/>
  </g>
</svg>
