<svg xmlns="http://www.w3.org/2000/svg" width="439.554" height="408.549" viewBox="0 0 439.554 408.549">
  <path id="Path_230" data-name="Path 230" d="M675.888,1130.674c-.124-.075-.819.466-1.552,1.208l-14.148,14.109-7.028,7.068c-2.313,2.377-4.592,4.776-6.882,7.166l-13.652,14.359c-2.285,2.379-4.462,4.836-6.686,7.253l-6.619,7.279-6.586,7.278c-1.09,1.216-2.2,2.419-3.27,3.646l-3.208,3.684-12.748,14.724-3.165,3.677-3.1,3.718-6.159,7.434-6.124,7.424c-2.037,2.471-4.076,4.936-6.039,7.446l-5.387,6.419a.017.017,0,0,0-.011,0,17.76,17.76,0,0,0-4.593,3.186l8.626-10.46,2.152-2.614,2.191-2.586,4.388-5.165,8.766-10.336,4.385-5.171,4.47-5.117,15.292-16.78,15.589-16.588c1.5-1.593,2.565-3.069,2.339-3.3-.194-.227-1.618.955-3.207,2.622l-7.666,8.131c1.789-2.467,2.728-4.256,2.383-4.767-.326-.5-1.807.31-3.909,1.959l8.064-9.243,4-4.61,4.055-4.544q8.089-9.073,15.933-18.058c.614-.7.861-1.139.529-.978a7.784,7.784,0,0,0-1.66,1.507L633.835,1164.3c-3.914,4.219-7.865,8.392-11.662,12.674L610.7,1189.735l-5.731,6.374-5.63,6.449-9.506,9.7-4.755,4.862c-1.594,1.621-3.128,3.3-4.7,4.954q-4.7,5-9.468,10.153l-4.808,5.231-2.427,2.665-2.4,2.735q-7,8.027-13.644,15.939c-1.107,1.321-2.221,2.632-3.305,3.956l-3.209,3.987-6.33,7.943c-8.451,10.513-16.26,21.172-24.2,31.728-5.993,7.417-11.863,14.873-17.678,22.279.565-1.194.759-1.992.448-2.18a.534.534,0,0,0-.357.025l15.385-19.83c24.334-30.867,48.417-60.49,72.974-89.309s49.578-56.834,75.737-84.442c3.38-3.5,5.4-6.381,4.475-6.373s-4.47,2.894-7.842,6.391l-9.561,9.672-2.355,2.4-2.3,2.432-4.57,4.853-9.035,9.679c-2.988,3.228-5.993,6.431-8.887,9.725L599.5,1191.527l-17.527,20.581c-2.136,2.475-4.17,4.963-6.193,7.413l-6.01,7.269-5.925,7.149-2.946,3.547-2.888,3.576c-7.658,9.565-15.483,19.026-23.476,29.349l-7.059,8.926-3.5,4.406-3.424,4.416c-4.561,5.867-9.1,11.656-13.65,17.418l-13.384,17.448-3.367,4.375-3.311,4.432-6.656,8.937c-1.844,2.3-3.663,4.629-5.4,7.034-1.78,2.42-3.457,4.89-5.173,7.315l-10.3,14.086c-1.733,2.325-3.4,4.68-5.078,7.021l-5.037,7.01-5.036,6.982-2.517,3.482-2.463,3.505-9.846,13.981,11.119-17.035,11.292-16.9,2.809-4.22,1.4-2.109,1.433-2.091,5.707-8.361,5.665-8.355,2.824-4.17,2.87-4.135c1.124-1.573,1.67-2.728,1.329-2.7a11.541,11.541,0,0,0-2.751,3.022c-21.747,30.494-42.807,61.507-62.8,92.967-1.879,1.88-4.088,4.387-6.508,7.344l-.113.139-.056.068-.024.018-.1.074-.192.149-.379.3-.735.591c-.481.4-.933.776-1.364,1.156a22.732,22.732,0,0,0-4.185,4.772l-.075.116-.037.058c-.006.008-.012.023-.018.025l-.02-.028a13.5,13.5,0,0,0-2.815-2.862l1.344,2.3a14.027,14.027,0,0,0-2.207-2.254c-.785-.653-1.619-1.3-2.571-2.025-.107-.188-.212-.376-.336-.565l-.472-.974-.239-.471-.015-.029-.053-.079-.124-.18-.249-.361-.5-.724c-1.339-1.932-2.714-3.888-4.163-5.833-2.884-3.9-5.861-7.88-8.943-11.85l-9.389-11.9c-3.181-3.93-6.334-7.846-9.383-11.714.025.484.113,1.039.138,1.522-2.144-2.932-3.13-4.827-5.594-7.968l1.616,2.866-.149-.187c-1.2-1.759-2.591-3.649-4.121-5.609s-3.188-4-4.966-6.011c-3.365-4.782-7.188-10.017-11.541-15.378-2.162-2.691-4.408-5.447-6.742-8.232q-3.544-4.146-7.286-8.389l-1.06-1.2c-.042-.063-.076-.122-.12-.187a52.734,52.734,0,0,0-5.283-6.464c-.949-1.155-2.1-2.474-2.732-3.355-1.405-1.978-2.907-4.054-4.551-6.175s-3.4-4.305-5.25-6.558-3.764-4.587-5.828-6.925-4.183-4.749-6.382-7.2l4.859,5.973c-2.53-2.834-5.018-5.64-8.021-8.655.186.419.462.93.648,1.352-2.083-2.515-4.535-5.125-7.09-7.766-2.572-2.628-5.246-5.287-7.983-7.73a117.256,117.256,0,0,0-14.8-11.762c-8.049-5.07-7.432-1.338,1.262,8.383l1.189,1.373c-5.06-4.409-9.805-7.959-12.964-9.55-1.71-.837-1.1.663-1.3,1.338-1.088.243,2.176,4.345,7.266,9.132,1.4,1.345,2.778,2.595,4.074,3.7l6.218,6.4c3.527,3.63,6.969,7.308,10.287,10.877a18.281,18.281,0,0,0,3.193,2.841c.654.359.388-.278-.683-1.456-3.721-4.2-7.281-8.333-10.857-12.406l-1.077-.811a5.574,5.574,0,0,1,.654.328c-.328-.373-.66-.741-.988-1.113.319.246.637.492.963.749l.792.84c.587.4,1.254.9,1.969,1.467l5.71,5.934c4.828,5,9.375,10.061,13.669,14.944.344.4-.61.028-.04.811l.906,1.2c-1.083-1.206-2.243-2.471-3.509-3.815l-8.849-7.469-.018-.025-.434-.348-2.069-1.7a.079.079,0,0,1-.022.028l-.532-.427-2.182-2.236a14.111,14.111,0,0,0-2.2-1.912c-.214-.351-.447-.721-.764-1.174-4.116-4.3-4.148-4.271-8.456-8.615,0,0-.072.076-.04.307-.184-.161-1.754-1.494-3.444-3.172-1.692-1.56-1.653-1.592-5.754-5.594l1.724,2.151-1.567-1.834.107.737-.431-1.094-1.062-.458-2.691-4-2.75-2.231s-.538-.353-.969-.577c-.141.056-.141.055-1.91-.927a.315.315,0,0,0-.14.312c.314.5.314.5.1.885,0,0,.36.558.962,1.307l3.085,3.35c-.273-.154-.538-.294-.782-.412-1.093.076-1.09.08.628,4.187a57.512,57.512,0,0,0,3.91,4.794l6.707,6.844,2.1,2.205c.814,1.186.985,1.457,1.55,2.365a.11.11,0,0,1,.014.019c-.729-.665-1.47-1.293-2.118-1.787-1.886-1.428-2.469-1.357-1.294.179-2.809-.966-2.555.807-1.039,3.71-1.029-.415-1.691-.449-1.937-.075-3.553-1.921-6.118-2.812-7.746-2.719l-1.126.362c.116,1.316,1.776,4.016,4.685,7.637l.835,1.134-1.637-.373a96.181,96.181,0,0,0,6.184,10.411c1.252,1.931,2.551,3.873,3.724,5.76s2.241,3.7,3.1,5.324l2.956,4.573c.518.844,1.151,1.781,1.886,2.8s1.545,2.128,2.457,3.3c1.823,2.335,4,4.926,6.434,7.653,1.731,1.909,3.4,3.869,5.1,5.8l3.344,3.566c-6.539-5.331-10.92-7.632-11.208-5.526-.189,1.768,2.463,6.266,6.919,12.078,2.239,2.9,4.833,6.2,7.793,9.624,1.468,1.722,3.041,3.464,4.629,5.263s3.243,3.612,4.944,5.426c14.99,16.557,29.274,33.224,43.154,50.216l2.611,3.181,2.571,3.209,5.154,6.42c1.734,2.132,3.413,4.3,5.11,6.464l4.815,6.2c1.705,2.167,3.373,4.425,5.058,6.639l2.522,3.335,2.5,3.386,5.006,6.769,10.012,13.522,19.871,26.9,25.9-42.729,7.611-12.588c1.252-2.1,2.524-4.125,3.785-6.158l3.769-6.073,1.867-3.01.939-1.554,1.872-3.1c1.246-2.062,2.477-4.12,3.753-6.144l7.545-12.116c2.506-4.019,4.986-8.03,7.569-11.977l7.695-11.87,3.877-5.932,3.988-5.892c5.348-7.859,10.714-15.8,16.492-23.719,20.785-31.033,41.51-60.59,63.3-90.14q3.443-4.65,6.627-9.093l3.143-4.406,3.115-4.281c4.092-5.662,7.953-11.146,11.724-16.565,1.864-2.724,3.81-5.361,5.7-8.027l5.714-7.986,5.792-8.052,1.473-2.033,1.519-2.021,3.088-4.075c.489-.632.415-.779.037-.528a11.125,11.125,0,0,0-1.71,1.814c-3.508,4.194-6.876,8.489-10.3,12.754l-10.29,12.82L565.049,1278.5l-10.2,13.26-5.168,6.659c-1.719,2.231-3.4,4.495-5.114,6.747L534.2,1318.748c-1.763,2.264-3.469,4.573-5.2,6.881l-5.214,6.942-9.54,12.532c-.378.438-.778.927-1.192,1.469l-8.769,11.18,2.919-3.976c1.963-2.61,3.329-5.035,3.06-5.466-.166-.108-.6.168-1.18.7l5.047-7.439,5.078-7.335,9.994-14.614c2.151-2.8,4.033-5.429,5.561-7.756l6.6-7.919,3.294-3.968c1.1-1.324,2.191-2.65,3.322-3.954l13.48-15.726,2.279-2.564c1.463-1.731,2.88-3.443,4.021-4.988a27.311,27.311,0,0,0,2.506-3.888,3.024,3.024,0,0,0,.435-1.3l7.352-9.212,3.685-4.611c1.226-1.539,2.5-3.043,3.751-4.567l14.978-18.193c10.11-11.951,19.9-23.874,29.485-35.284.964-1.164,1.355-1.87,1.013-1.821a12.192,12.192,0,0,0,1.359-1.436c2.145-2.824,4.7-5.881,7.423-9.079.577-.71.826-1.148.439-.906a7.535,7.535,0,0,0-1.693,1.591c-2.778,3.278-5.458,6.513-7.817,9.548a1.613,1.613,0,0,0-.376.664,20.208,20.208,0,0,0-2.554,2.529l-7.69,8.6c-2.527,2.877-4.987,5.789-7.467,8.677l-7.4,8.673-3.692,4.333-1.844,2.167-1.808,2.193q-7.234,8.769-14.553,17.546c-2.471,2.911-4.85,5.9-7.287,8.863l-7.361,8.922,6.928-9.066c2.346-3.031,4.679-6.107,7.152-9.131l15.057-18.6,18.395-22.208c1.5-1.837,3.053-3.644,4.617-5.449l4.712-5.44c3.167-3.638,6.395-7.3,9.73-11.027.711-.762,1.083-1.349.906-1.345a5.158,5.158,0,0,0-1.542,1.349q-5.161,5.695-10.089,11.294c-3.279,3.746-6.562,7.418-9.66,11.18l-9.3,11.182-4.608,5.573-2.3,2.785-2.26,2.815-9.079,11.3-4.607,5.678c-1.547,1.9-3.112,3.794-4.636,5.735q-4.615,5.794-9.427,11.677l-4.888,5.917-2.489,2.987L558.775,1277l-3.158,3.8,5.45-7.936,5.534-7.807,11-15.531c24.963-29.659,50.709-58.615,76.782-86.788,1.3-1.356,2.184-2.582,1.952-2.705s-1.5.9-2.8,2.247c-15.525,15.438-30.9,31.167-45.9,47.242l2.81-3.614,2.97-3.47,14.419-15.548,7.2-7.794,7.326-7.721c3.709-3.8,6.312-7.307,5.925-7.959-.508-.5-3.709,1.987-7.308,5.636l1.621-1.864c.556-.621.858-1.137.61-1.042a8.417,8.417,0,0,0-1.675,1.481l-5.76,6.7-3.554,3.621-3.488,3.672-6.96,7.36-6.941,7.378-3.464,3.695-3.4,3.744-13.544,15.016-3.379,3.76-3.315,3.805-6.615,7.621c9.116-11.2,18.735-22.166,28.354-33.233,4.879-5.483,9.848-10.925,14.812-16.391,2.491-2.726,4.968-5.469,7.489-8.182l7.661-8.081c-.348.486-.274.629.317.155a12.418,12.418,0,0,0,1.732-1.807c.411-.569.2-.577-.309-.164l-.051.043,8.274-8.662c1.386-1.44,2.759-2.892,4.161-4.321l4.238-4.267q8.488-8.531,17.065-17.035C675.529,1131.389,676.011,1130.744,675.888,1130.674ZM251.826,1306.6a13.405,13.405,0,0,1,.913,1.266S252.735,1307.859,251.826,1306.6Zm-5.751,16.905-.192-.336,5.352,1.569Zm27.425,11.125-1.1-1.914,1.117,1.932Zm47.22,41.08c-.679-.686-1.9-2.107-1.519-1.136-1.276-1.479-2.548-2.972-3.851-4.453l-3.962-4.441c-2.673-2.962-5.337-5.983-8.14-8.966-2.078-2.227-4.19-4.38-6.275-6.393-.838-1.375-1.708-2.786-2.7-4.285s-2.134-3.071-3.455-4.81l15.547,17.466,8.288,9.6c1.383,1.582,2.73,3.183,4.077,4.779l4.042,4.776C322.087,1377.134,321.407,1376.424,320.719,1375.709Zm17.859,11.17-3.694-4.687.557.952-3.714-4.423-3.763-4.378-7.5-8.734c-6.943-8.551-14.743-17.51-23-26.318,1.28,1.117,2.541,2.205,3.757,3.265q2.016,1.759,3.923,3.37c10.011,11.578,19.183,22.989,29.584,35.111l1.9,2.492,2.368,3.844C338.857,1387.214,338.718,1387.044,338.579,1386.879Z" transform="translate(-236.353 -1126.578)" fill="#30a923"/>
</svg>
