<?xml version="1.0" encoding="UTF-8"?>
<svg id="Layer_2" data-name="Layer 2" xmlns="http://www.w3.org/2000/svg" viewBox="0 0 401.78 180.86">
  <defs>
    <style>
      .cls-1 {
        fill: #141414;
      }

      .cls-2 {
        fill: #fff;
      }

      .cls-3 {
        fill: #a24343;
      }

      .cls-4 {
        fill: #1d1d1d;
      }

      .cls-5 {
        fill: #1b1b1b;
      }
    </style>
  </defs>
  <g id="Layer_1-2" data-name="Layer 1">
    <g>
      <path class="cls-2" d="M230.64,66.87c5.39-5.27,38.29-50.64,41.47-49.99.71.14,2.29,2.08,1.03,3-4.28,6.53-38.61,44.4-38.26,48.5.09,1.1,6.84,6.58,8.17,8.57,5.37,8.05,16.34,37.64,28.01,35.95.67-.1,13.38-10.23,7.63-1.47-2.53,3.85-8.38,3.89-12.47,3.34-18.26-2.46-27.34-41.89-32.14-42.89-7.14-1.49-8.44,25.2-11.01,28.94-1.31,1.9-4.33,2.59-5.28.89-2.14-3.81,16.34-78.98,12.35-78.83-1.66.07-9.03,11.98-10.01,11.97-4.47-.04,8.34-22.59,15.11-17.07,5.63,4.59-4.79,41.13-4.59,49.1Z"/>
      <path class="cls-2" d="M105.62,16.87c5.64-19.7,28.02-20.93,42.47-9.97,13.36,10.12,14.67,25.61,22.52,37.31.72,1.07.7.85,1.98.65,9.19-13.51,20.01-27.11,34.02-35.99,1.66.5,1,1.83-2,4-10.69,11.97-21.06,24.57-30.83,37.31,12.05,22.84,19.65,54.84,43.83,67.69,1.28,1.91-1.29,1.39-3,1-21.92-7.42-34.11-45.43-44.52-63.99-1.09-.26-12.88,14.94-14.48,16.99-2.85,2.84-3.78,2.89-2-1,2.86-4.31,14.26-18.77,14-22.39-.39-5.44-14.19-31.02-18.5-35.62C136.15-.97,112.09-.39,106.62,19.87c-1.15.69-1.49-.31-1-3Z"/>
      <path class="cls-1" d="M31.62,143.87c-2-.05-4-.05-6,0-3.44-2.62-6.32-5.62-9-9-1.88-2.35,4.7-7.93,7.08-9.91,1.89-2.83,3.87-3.86,5.92-3.09,12.68,10.03,15.67,11.59,2,22Z"/>
      <path class="cls-2" d="M193.62,144.87c-.15.96.05,1.35.45,1.36.36.82.87,1.7,1.55,2.64-.27,1.01-1.6,1.67-4,2-5.99,8.05-5.03,25.36-13.51,29.99-1.19-4.58,11.01-27.47,10.51-28.99-.32-.04-.62-.05-.91-.05-2.68-.17-3.7-.83-3.09-1.95,1.73-1.57,3.92-.49,5.51-1.99,3.64-3.43,5.54-20.54,13.49-24.01,2.07-.51,3.07-.17,3,1-3.18,1.86-11.47,16.08-13,20Z"/>
      <path class="cls-2" d="M343.62,143.87c2.83-1.29,2.94,3.3-1,3-5.57,7.61-16.02,21.07-27.05,17.55-6.16-1.96-4.84-9.16-2.96-7.55.31.27,0,4.43,1.69,5.03,10.72,3.81,27.68-15.12,26.32-16.02-2.79-1.86-23.41-2.43-21.49,6.98-6.1-15.7,16.21-9.29,24.49-8.99Z"/>
      <path class="cls-2" d="M396.62,145.87c-4.68-4.95-22.33-6.54-20.6-14.03,1.39-6.02,28-15.43,25.6-2.97-.28.87-.62.86-1,0,.61-9.21-22,.34-21.98,3.5.03,3.71,22.93,6.13,19.98,16.5-1.06,1.2-1.73.2-2-3Z"/>
      <path class="cls-2" d="M151.9,125.15c-.63-.02-1.39-.12-2.28-.28-4.85,3.99-10.59,14.07-13,20,.09.31.15.62.17.95.12,1.79-.94,3.81-3.17,6.05-.66.66-.1,4.69-.09,5.59,0,.12,0,.25.09.33.07.08.19.1.3.11.96.11,4.48.21,3.7,1.97-8.18,2.77-6.65-4.86-7.51-5.01-1.74-.3-4.24,4.93-9.49,5.01-1.72-.41-2.87-2.08-1-3,2.59,4.02,9.46-3.24,11-5.5,3.5-5.18,12.44-33.54,23-28.5,1.02,1.61.45,2.36-1.72,2.28Z"/>
      <path class="cls-5" d="M12.62,129.87c-.2-3.27,2.74-3.65,1.27-7.71-1.35-3.72-14.96-11.7-13.83-15.29,1.96-6.22,11.35,8.51,13.34,10.01,4.75,3.59,4.35,1.93,8.22,1.99,2.18-.83,3.4-.64,3.84,1.69.25,1.35-10.52,13.35-12.84,9.31Z"/>
      <path class="cls-2" d="M91.62,157.87c2.38.45,3.05,1.12,2,2-14.64,1.07,2.06-26.07,1.02-29.48-.43-1.39-3.39-.11-4.02.48-1.41,1.33-1.92.77-1-1,2.26-1.83,7.22-8.15,8.09-.51s-8.08,17.12-6.09,28.51Z"/>
      <path class="cls-2" d="M224.62,157.87c5.97,2.85,15.36-15.73,16.51-16,5.07-1.19-.87,8.36-.5,10,3.4-2.23,5.59-5.73,8.99-8,.87.28.86.62,0,1,1.45.99.7,2.13-1,2-4.7,5.39-17.82,22.72-12.49,5.01-2.78,3.49-7.87,9.47-12.51,7.99-1.52-1.8-1.31-1.84,1-2Z"/>
      <path class="cls-2" d="M363.61,124.35c-.54,2.71-7.29,14.14-8.99,20.52.35.3.63.58.85.83,0,0,0,.01.01.01,1.05,1.27.36,1.94-1.86,2.16-.67,3.37-2.36,7.83,0,11,.89,1.56-.48,1.45-2,1-3.76-2.72-1.62-8.52-1-12-2.64-.55-2.45-.77,0-2,.55-2.48,2.96-7.97,4-11,.02-.33.02-.62.02-.87.06-1.71.27-3.32.98-5.13.39-.42,9.57-12.53,7.99-4.52Z"/>
      <path class="cls-2" d="M48.62,140.87c-1.01,1.33-28.15,26.06-10.73,22.81,6.37-1.19,9.91-13.98,12.73-18.81,1.18-3.63.51-4.96-2-4ZM34.63,161.86c-1.77-1.65,11.2-16.93,13.98-17.99-.17,3.13-9.96,21.75-13.98,17.99Z"/>
      <path class="cls-2" d="M173.62,139.87c1.21,2.26,7.59.03,8.01,1.51.59,2.08-14.65,21.88-3.46,15.54,2.01-1.14,4.53-5.31,6.45-7.05.89,1.31,3.5.49,4,2-5.79-.71-7.07,6.25-12.48,8.1-6.05,2.07-6.85-2.09-5.07-7.16,1.99-5.69,11.88-7.87,1.55-9.94-.33.48-.66.48-1,0-1.42-1.32.27-3.77,2-3Z"/>
      <path class="cls-2" d="M48.62,140.87c4.28-5.64,6.88-10.05-1.99-8.98,22.17-19.68,7.01.09,7.99.97,1.45,1.32,7.56-4.57,10-4.99.94.04,1.27.37,1,1-8.54,4.23-10.58,8.43-15,16l-2-4Z"/>
      <path class="cls-3" d="M21.62,118.87c.23,0,1.01-1.35,4.07-.61,1.49.36,2.55,2.52,3.93,3.61l-13,13c-1.21-1.53-3.8-1.66-4-5,1.27.33,16.59-12.49,9-11Z"/>
      <path class="cls-2" d="M73.62,148.87c.87.98.87,2.64,0,5-.25.33-1.13,3.44-2.1,4.31-.58.52-1.2.25-1.73-1.92-1.42-5.77,10.84-25.21-4.17-27.4-.42-.06-.84-.58-1-1,14.77-2.51,11.99,11.69,9,21Z"/>
      <path class="cls-2" d="M368.62,149.87c-7.79,9.88,7.48,9.49,14,8,2.12-.47,3.12-.13,3,1-6.09,2.18-20.88,6.87-22-3-1.77.1-1.77-.9,0-3,1.13-.88,2.03-2.59,4-4,1.4-1.13,1.94-.64,1,1Z"/>
      <path class="cls-2" d="M196.62,147.87c1.29,1.42.7,1.93-1,1-6.42-.45-2.84-1.86-2-4-.15.96.05,1.35.45,1.36,1.58.06,6.34-5.56,6.57-5.84,1.97-2.29,15.46-21.07,5.98-15.52l-3-1c2.09-.91,5.06-2,7.06-.56,5.28,3.8-11.19,21.2-14.06,24.56Z"/>
      <path class="cls-2" d="M201.62,148.87c4.17-1.12,5.29-9.83,7.99-6.99,1.63,1.71-6.27,10.41-3.99,15.99,2-.28,2.43.56,1,2-6.57.27-5.89-4.73-5-10-.87-.28-.86-.62,0-1Z"/>
      <path class="cls-2" d="M232.62,141.87c.7.56-7.08,11.18-8,16-.15.8-.05,1.63-1,2-8.05-2.57,2.32-10.89,4.2-14.33,1.32-2.42.46-1.22-1.2-2.67-.45-1.77,4.31-2.03,6-1Z"/>
      <path class="cls-2" d="M158.55,142.83c-.1.19-.27.35-.44.47-3.14,2.07-6.38,4.39-8.49,7.57-1.06,1.6-1.47,4.13-2,6,.34.17.63.34.87.51,1.8,1.24.7,2.25-1.87,1.49-1.72-1.5-1.21-1.05-2-3-.17.01-.34.03-.51.06-2.43.2-1.81-1.17-.49-3.06.74-1.06,2.03-1.97,2.9-2.95,1.01-1.15,1.97-2.34,3.02-3.45,2.01-2.11,4.95-4.64,8.03-4.67.4,0,.87.08,1.03.45.09.19.05.4-.05.59Z"/>
      <path class="cls-2" d="M260.62,157.87c2.46.26,3.13.93,2,2-11.07,1.92-3-10.72-4.01-12-.18-.23-2.04,1.12-2.99,1,.67-.59,8.83-7.98,8.97-3.51.03,1.06-5.32,6.38-3.97,12.51Z"/>
      <path class="cls-2" d="M115.62,141.87c1.5-.23,2.16.11,2,1-8.57,2.91-9.99,7.18-14,14,1.42,1.28.81,1.67-1,1-.84-.59-.69-1.38-1-2-2.01.28-2.43-.56-1-2,5.65-4.8,5.37-9.49,15-12Z"/>
      <path class="cls-2" d="M283.62,141.87c1.65-.27,2.32.06,2,1-4.09,1.32-10.54,7.4-13,11-.06,3.17-.73,4.5-2,4-.22-.16-.73-1.48-1-2-2.01.28-2.43-.56-1-2,5.42-4.76,5.78-9.67,15-12Z"/>
      <path class="cls-2" d="M171.62,142.87c.33.04.68-.06,1,0-4.36,6.66-16.66,24.12-26,16,.88-.42.79-1.23,1-2,10.58,6.86,18.16-7.83,22-15,1.74-2.04,2.45-1.61,2,1Z"/>
      <path class="cls-2" d="M284.62,149.87c13.66-11.16,2.6-.6,4,8,2.47.37,3.14,1.03,2,2-7.37.79-5.27-3.11-5-7-2.08-.53-2.22-1.36-1-3Z"/>
      <path class="cls-2" d="M249.62,143.87c11.34-7.57,1.36,4.43,6,5-2.21,1.95-4.13,6.15-7.49,7.01-1.06-1.88.79-5.05,1.49-7.01.24-1.47.24-2.8,0-4v-1Z"/>
      <path class="cls-2" d="M137.62,28.87v8c-1.11,5.73-3.58,6.26-8,8,.39-.12,4.86-5.86,5.08-6.43,3.45-9.15-.31-14.9-9.07-17.56,5.68-.34,10.88,2.08,11.99,7.99Z"/>
      <path class="cls-2" d="M354.62,134.87c.02-.33.02-.62.02-.87,0-2.24-.65-.93-1.85.54-3.18,3.93-11.7,11.68-2.17,11.33-.13.6.11,1.38,0,2l-8-1c2.61-3.57.87-2.83,1-3,3.99-5.3,7.48-10.08,12-15,2.55,3.01-.5,4.55-1,6Z"/>
      <path class="cls-2" d="M106.62,19.87c.91,6.77-.15,12.88,5,19,1.33,1.41.77,1.92-1,1-6.8-7.46-7.71-13.53-5-23-.44,1.17.94,2.53,1,3Z"/>
      <path class="cls-2" d="M119.62,156.87c-.06.93.57,2.14,1,3-1.4.02-1.99.17-3-1-.11-3.05-.71-5.28-1.81-6.7l1.81-3.3c.32-.26,5.27-7.3,5.97-2.51.08.56-3.73,6.94-3.97,10.51Z"/>
      <path class="cls-2" d="M222.62,143.87c-2.86,4.54-10.56,15.78-16,16-.28-.69-.72-1.32-1-2,7.77-1.71,11.44-9.92,15-16,1.91-2.17,3.44-.37,2,2Z"/>
      <path class="cls-2" d="M117.62,148.87v10c-1.68-1.96-.95-3.76-1.01-6-4.62,3.27-7.78,9.39-13.99,5,.3-.33.78-.62,1-1,4.98,1.94,10.24-5,14-8Z"/>
      <path class="cls-2" d="M150.62,151.87c.86-.63,2.18-.61,3-1,0,.25-.05.47-.14.64-.33.68-1.28.8-2.86.36Z"/>
      <path class="cls-2" d="M153.62,150.87c1.55-.74,6.19-3.55,7-4.77,2.72-4.07.37-2.8-2-3.23,8.75-2.7.43,9-5,8Z"/>
      <path class="cls-2" d="M153.62,70.87c-.17,2.66-.04,2.28,2,1-3.74,4.81-7.31,10.09-11,15-1.41,1.33-1.92.77-1-1,3.27-5.07,6.67-9.99,10-15Z"/>
      <path class="cls-2" d="M285.62,152.87c-6.19,2.01-7.37,10.45-15,5,.95-1.2,1.14-2.74,2-4-1.64,9.68,9.88-2.27,12-4,1.5,1.51,1.11,1.44,1,3Z"/>
      <path class="cls-2" d="M129.62,44.87c-8.97,3.54-12.66,1.96-19-5l1-1c3.52,4.18,12.73,7.64,18,6Z"/>
      <path class="cls-2" d="M146.52,138.77c-.36.36-.72.72-1.1,1.06-.41-.57-.03-1.35.35-1.94.45-.69,7.96-12.74,6.13-12.74-.63-.02-1.39-.12-2.28-.28,1.21-.99,2.81-1,4-2,.76-.64,1.33,2.62,1.31,2.94-.09,1.61-1.69,3.83-2.48,5.2-1.64,2.82-3.64,5.44-5.93,7.76Z"/>
      <path class="cls-2" d="M82.09,141.2c-2.01,5.14-5.43,8.57-8.47,12.67-2.17-1.35-.48-3.49,0-5,2.54-.84,5.91-6.14,8-9,.66.29.47,1.33.47,1.33Z"/>
      <path class="cls-2" d="M155.62,151.87c-1.38.36-2.1.24-2.14-.36-.01-.17.04-.38.14-.64,1.55-.74,6.19-3.55,7-4.77,2.72-4.07.37-2.8-2-3.23-.41-.07-1.25-1-1.99-1,11.03-3.25,7.04,6.91-1.01,10Z"/>
      <path class="cls-2" d="M146.62,138.87c-3.76,4.78-8.37,9.08-13,13,.27-2.04,2.17-4.95,3-7,.09.31.15.62.17.95,1.27,1.23,8.51-7.51,8.83-7.95l1,1Z"/>
      <path class="cls-2" d="M288.62,157.87c6.1.63,7.47-6.32,11.99-7.99-.15,3.77-6.83,9.65-9.99,9.99-.45-.53-1.92-1.53-2-2Z"/>
      <path class="cls-2" d="M90.62,130.87c-1.92,1.35-3.25,3.35-4.53,5.28-.58.88-1.16,1.76-1.77,2.61-.32.44-2.52,2.64-2.48,3.04l-.22-1.93c3.14-4.28,3.22-6.13,8-10,0,0,1,1,1,1Z"/>
      <path class="cls-2" d="M363.62,155.87c-4.25.98-6.89,7.7-12,4,.8-.03,1.43-.79,2-1,3.9-1.48,6.78-3.48,10-6,.07.99-.11,2.02,0,3Z"/>
      <path class="cls-2" d="M225.62,138.87c1.03,2.63.36,3.97-2,4-.2.35-.76.63-1,1l-2-2c1.32-2.26.78-5.49,5.51-6.99,1.42.88-.09,2.95-.51,3.99Z"/>
      <path class="cls-2" d="M398.62,148.87c-1.24,4.36-3.69,4.89-7,7-1.61.73-1.94.59-1-1,2.62-1.61,6.97-5.56,6-9,.74.78,1.17,2.18,2,3Z"/>
      <path class="cls-4" d="M31.62,143.87c-.66.5-1.37,2.77-2.62,2.94-2.03.28-2.51-2.28-3.38-2.94,2.7-3.83,3.27-3.9,6,0Z"/>
      <path class="cls-2" d="M144.62,155.87c-2.77.16-4.83,3.26-7,4-.94-1.21-3.4-.66-4-2,4.28.63,7.08-2.5,10-5,.65.88.62,2.07,1,3Z"/>
      <path class="cls-2" d="M169.62,141.87c4.13-7.71,9.57-9.02,4-2-.76.96-1.72,1.71-2,3-.56-.07-1.36-.8-2-1Z"/>
      <path class="cls-2" d="M225.62,118.87c2.15.39,2.82,1.06,2,2-5.27.27-8.1-.34-13-2,1.39.71,2.84-.99,3-1,1.75-.13,5.53.84,8,1Z"/>
      <path class="cls-2" d="M376.62,143.87c1.49-.47,1.76-.45,1,1-2.42.98-7.48,3.07-9,5l-1-1c3.94-2.82,2.73-3.75,9-5Z"/>
      <path class="cls-2" d="M353.62,147.87c.29-1.47.78-2.16,1-3,1.97,3.22,7.73-1.31,7.99-1,2.1,2.58-6.97,5.08-8.99,4Z"/>
      <path class="cls-2" d="M211.62,5.87c1.5-.88,1.95-.57,1,1-2.6,2.06-4.89,4.72-8,6,1.64-1.83,1.85-3.84,2-4,2.52-2.63,2.27-1.78,5-3Z"/>
      <path class="cls-2" d="M269.62,155.87c-2.36,1.29-4.18,3.51-7,4-.46-.55-1.89-1.48-2-2,3.3.15,5.76-2.03,8-4,.34.67.66,1.34,1,2Z"/>
      <path class="cls-2" d="M212.62,133.88l-4.99,4.99c-.87-3.04,2.54-4.63,4.99-4.99Z"/>
      <path class="cls-2" d="M101.62,155.87c-3.25.6-4.36,3.73-8,4-.45-.53-1.92-1.52-2-2,3.71.56,6.4-1.79,9-4,.33.67.67,1.33,1,2Z"/>
      <path class="cls-2" d="M390.62,154.87l1,1c-2.38,1.52-3.28,2.02-6,3l-3-1c.5-.11,7.64-2.78,8-3Z"/>
      <path class="cls-2" d="M211.62,96.88c2.01,2.19-1.79,6-3.99,3.99-1.68-1.53,2.45-5.67,3.99-3.99Z"/>
      <path class="cls-2" d="M201.62,148.87v1l-10,1c.8-1.07,3.13-.98,4-2,.29-.34.69-.63,1-1,.9.07,4.75,1.07,5,1Z"/>
      <path class="cls-2" d="M117.62,142.87c-.45-.1-1.25-1-2-1,9.79-2.55,10.52,2.85,2,1Z"/>
      <path class="cls-2" d="M225.62,138.87c-.9,4.08,4.66.35,7,3-1.37-1.08-4.73.72-6,1-.85.19-2.06-.13-3,0,.18-.31,1.92-3.79,2-4Z"/>
      <path class="cls-2" d="M144.62,86.87c-1.33,1.77-2.44,3.94-4,6-1.41,1.33-1.92.77-1-1,1.29-2.11,2.69-3.97,4-6l1,1Z"/>
      <path class="cls-2" d="M283.62,141.87c2.47-.63,3.85-2.02,7.02-.52,4.17,1.97-4.25,1.27-5.02,1.52l-2-1Z"/>
      <path class="cls-2" d="M140.62,92.87c-1.52,2.01-2.52,4.88-4.99,6-.17-2.96,2.71-4.9,3.99-7l1,1Z"/>
      <path class="cls-2" d="M225.62,118.87c2.64.18,5.35-.14,7.99.01-.3,1.68-4.67,1.92-5.99,1.99l-2-2Z"/>
      <path class="cls-2" d="M137.62,36.87v-8c.26,1.38.27,6.63,0,8Z"/>
      <path class="cls-2" d="M376.62,143.87c.7-.14,2.67-1.94,3.99-.99,2.93,2.08-2.73,1.89-2.99,1.99l-1-1Z"/>
      <path class="cls-2" d="M401.62,128.87c-1.06,5.49-5.66,2.58-1,0h1Z"/>
      <path class="cls-2" d="M249.62,144.87c4.66-.11.45,2.74,0,4l-1-2c.41-.48.61-1.42,1-2Z"/>
      <path class="cls-2" d="M211.62,5.87c1.28-.57,2.48-2.8,4.99-1.99-.23,1.54-2.69,1.95-3.99,2.99l-1-1Z"/>
      <path class="cls-2" d="M155.62,151.87c-2.54.98-1.96,1.82-5,0,.86-.63,2.18-.61,3-1l2,1Z"/>
      <path class="cls-2" d="M136.79,145.82c-.16-.15-.22-.46-.17-.95.09.31.15.62.17.95Z"/>
      <path class="cls-2" d="M151.9,125.15c-.63-.02-1.39-.12-2.28-.28,1.2-.27,1.92-.13,2.28.28Z"/>
    </g>
  </g>
</svg>